<?xml version="1.0" encoding="UTF-8"?>
<!DOCTYPE svg PUBLIC "-//W3C//DTD SVG 1.1//EN" "http://www.w3.org/Graphics/SVG/1.1/DTD/svg11.dtd">
<!-- Creator: CorelDRAW -->
<svg xmlns="http://www.w3.org/2000/svg" xml:space="preserve" width="100mm" height="113.715mm" version="1.1" style="shape-rendering:geometricPrecision; text-rendering:geometricPrecision; image-rendering:optimizeQuality; fill-rule:evenodd; clip-rule:evenodd"
viewBox="0 0 17986.84 20453.81"
 xmlns:xlink="http://www.w3.org/1999/xlink"
 xmlns:xodm="http://www.corel.com/coreldraw/odm/2003">
 <defs>
  <style type="text/css">
   <![CDATA[
    .fil2 {fill:#14C37A}
    .fil3 {fill:#61DD56}
    .fil0 {fill:#E51E14}
    .fil1 {fill:#FB3118}
   ]]>
  </style>
 </defs>
 <g id="Layer_x0020_1">
  <metadata id="CorelCorpID_0Corel-Layer"/>
  <g id="_2458425687952">
   <path class="fil0" d="M8996.98 3595.39c379.99,90.91 613.87,17.63 1208.68,267.28 2523.75,1059.35 2312.87,4990.43 -548.04,5628.84 -228.47,50.97 -453.75,46.71 -660.64,96.21l0 8770.65 121.99 -12.63c416.56,-116.39 586.6,-607.74 926.75,-1115.69l1582.84 -2492.08c140.73,-212.77 676.9,-1121.16 801.85,-1222.96 79.61,-177.98 183.56,-295.81 277.77,-453.65l1671.88 -2642.55c101.3,-161.94 207.15,-288.92 300.49,-458.54 1577.73,-2867.68 1077.92,-6020.07 -1200.68,-8213.31l-1051.67 -785.99c-1028.94,-614.86 -2092.86,-960.98 -3430.2,-960.98l-1.03 3595.39z"/>
   <path class="fil1" d="M5559.21 13506.59c129.52,106.03 2173.28,3359.85 2420.51,3767.65 133.71,220.45 261.19,421.79 403.1,635.46 177.17,266.73 214.08,393.05 614.16,448.68l0 -8770.65c-794.07,-17.32 -1559.17,-338.22 -2109.66,-888.69 -250.04,-250.05 -459.1,-534.44 -608.62,-869.48 -891.43,-1997.31 531.92,-4186.47 2718.28,-4234.16l1.03 -3595.39c-1017.57,0 -1531.63,139.51 -2425.29,454.22 -389.04,137.01 -1063.87,508.74 -1395.9,761.33l-626 492.57c-1664.23,1465.69 -2457.33,3873.12 -2044.78,6098.96 327.18,1765.16 1563.65,3224.09 2492.02,4778.67 92.25,154.49 174.83,287.34 273.69,445.39 114.09,182.35 187.96,276.51 287.47,475.45z"/>
   <path class="fil2" d="M9118.97 18345.75l-128.57 60.47 4.35 2047.57c1802.23,0 3377.3,-163.73 4825.83,-527.37 344.18,-86.39 686.05,-170.46 1031.71,-286.58 710.79,-238.83 1247.73,-469.74 1860.9,-855.63 137.82,-86.73 268.56,-193.74 392.02,-287.11 1060.59,-802 1213.07,-2104.08 189.83,-3107.68 -1011.11,-991.69 -3501.39,-1758.02 -4864.63,-1874.39 -124.95,101.81 -661.12,1010.19 -801.85,1222.96l-1582.84 2492.08c-340.15,507.95 -510.2,999.29 -926.75,1115.69z"/>
   <path class="fil3" d="M8994.75 20453.79l-4.35 -2047.57 128.57 -60.47 -121.99 12.63c-400.08,-55.63 -436.99,-181.95 -614.16,-448.68 -141.92,-213.67 -269.39,-415.01 -403.1,-635.46 -247.23,-407.8 -2290.98,-3661.62 -2420.51,-3767.65 -769.51,143.45 -1477.4,259.71 -2182.61,490.07 -1219.53,398.37 -2615.07,939.96 -3211.21,2141.94 -433.37,873.8 49.59,1850.43 702.15,2335.43 141.59,105.21 243.56,202.59 389.2,289.93 155.26,93.06 264.23,170.43 418.91,260.23 138.28,80.28 306.55,140.6 460.82,218.27 1752.37,882.18 4908.82,1211.32 6858.27,1211.32z"/>
  </g>
 </g>
</svg>
